<svg width="326" height="169" viewBox="0 0 326 169" fill="none" xmlns="http://www.w3.org/2000/svg">
<path fill-rule="evenodd" clip-rule="evenodd" d="M80 8.5C80 17.6127 72.6127 25 63.5 25C54.3873 25 47 17.6127 47 8.5C47 5.39086 47.86 2.48256 49.355 0L77.645 0C79.1401 2.48256 80 5.39086 80 8.5ZM298.5 0C294.358 0 291 3.35786 291 7.5C291 11.6421 294.358 15 298.5 15C302.642 15 306 11.6421 306 7.5C306 3.35786 302.642 0 298.5 0ZM0 33.5847V20.0308C1.69705 22.3282 4.42453 23.8182 7.5 23.8182C12.6463 23.8182 16.8182 19.6463 16.8182 14.5C16.8182 9.35371 12.6463 5.18182 7.5 5.18182C4.42453 5.18182 1.69705 6.67176 0 8.9692V0L21.9914 0C25.7037 3.71011 28 8.83689 28 14.5C28 25.8218 18.8218 35 7.5 35C4.85284 35 2.32287 34.4983 0 33.5847ZM0 146.201C2.2502 147.351 4.79933 148 7.5 148C16.6127 148 24 140.613 24 131.5C24 122.387 16.6127 115 7.5 115C4.79933 115 2.2502 115.649 0 116.799V131.5V146.201ZM61.5732 169H47.4268C47.1504 168.218 47 167.377 47 166.5C47 162.358 50.3579 159 54.5 159C58.6421 159 62 162.358 62 166.5C62 167.377 61.8496 168.218 61.5732 169ZM299.988 169H281.012C279.743 167.151 279 164.912 279 162.5C279 156.149 284.149 151 290.5 151C296.851 151 302 156.149 302 162.5C302 164.912 301.257 167.151 299.988 169ZM326 70.0086V98.9914C322.29 102.704 317.163 105 311.5 105C300.178 105 291 95.8218 291 84.5C291 73.1782 300.178 64 311.5 64C317.163 64 322.29 66.2963 326 70.0086ZM0 131.5C0 135.642 3.35786 139 7.5 139C11.6421 139 15 135.642 15 131.5C15 127.358 11.6421 124 7.5 124C3.35786 124 0 127.358 0 131.5ZM71 8.5C71 12.6421 67.6421 16 63.5 16C59.3579 16 56 12.6421 56 8.5C56 4.35786 59.3579 1 63.5 1C67.6421 1 71 4.35786 71 8.5ZM311.5 93.8182C316.646 93.8182 320.818 89.6463 320.818 84.5C320.818 79.3537 316.646 75.1818 311.5 75.1818C306.354 75.1818 302.182 79.3537 302.182 84.5C302.182 89.6463 306.354 93.8182 311.5 93.8182ZM35.5 62C41.8513 62 47 56.8513 47 50.5C47 44.1487 41.8513 39 35.5 39C29.1487 39 24 44.1487 24 50.5C24 56.8513 29.1487 62 35.5 62ZM35.5 55.7273C38.3869 55.7273 40.7273 53.3869 40.7273 50.5C40.7273 47.6131 38.3869 45.2727 35.5 45.2727C32.6131 45.2727 30.2727 47.6131 30.2727 50.5C30.2727 53.3869 32.6131 55.7273 35.5 55.7273ZM59.5 136C61.9853 136 64 133.985 64 131.5C64 129.015 61.9853 127 59.5 127C57.0147 127 55 129.015 55 131.5C55 133.985 57.0147 136 59.5 136ZM269 13.5C269 15.9853 266.985 18 264.5 18C262.015 18 260 15.9853 260 13.5C260 11.0147 262.015 9 264.5 9C266.985 9 269 11.0147 269 13.5ZM20.5 96C24.6421 96 28 92.6421 28 88.5C28 84.3579 24.6421 81 20.5 81C16.3579 81 13 84.3579 13 88.5C13 92.6421 16.3579 96 20.5 96ZM205 22.5C205 26.6421 201.642 30 197.5 30C193.358 30 190 26.6421 190 22.5C190 18.3579 193.358 15 197.5 15C201.642 15 205 18.3579 205 22.5ZM295.727 162.5C295.727 165.387 293.387 167.727 290.5 167.727C287.613 167.727 285.273 165.387 285.273 162.5C285.273 159.613 287.613 157.273 290.5 157.273C293.387 157.273 295.727 159.613 295.727 162.5Z" fill="CurrentColor"/>
</svg>
