<svg width="326" height="169" viewBox="0 0 326 169" fill="none" xmlns="http://www.w3.org/2000/svg">
<path d="M0 138.901V160.901L4.67582 169H17.3775L0 138.901Z" fill="#FBE9E5"/>
<path d="M42.3775 169H29.6758L0 117.6V95.6L42.3775 169Z" fill="#FBE9E5"/>
<path d="M67.3775 169H54.6758L0 74.2987V52.2987L67.3775 169Z" fill="#FBE9E5"/>
<path d="M92.3775 169H79.6758L0 30.9974V8.99743L92.3775 169Z" fill="#FBE9E5"/>
<path d="M117.378 169H104.676L7.10363 0H19.8053L117.378 169Z" fill="#FBE9E5"/>
<path d="M142.378 169H129.676L32.1036 0H44.8053L142.378 169Z" fill="#FBE9E5"/>
<path d="M167.378 169H154.676L57.1036 0H69.8053L167.378 169Z" fill="#FBE9E5"/>
<path d="M192.378 169H179.676L82.1036 0H94.8053L192.378 169Z" fill="#FBE9E5"/>
<path d="M217.378 169H204.676L107.104 0H119.805L217.378 169Z" fill="#FBE9E5"/>
<path d="M242.378 169H229.676L132.104 0H144.805L242.378 169Z" fill="#FBE9E5"/>
<path d="M267.378 169H254.676L157.104 0H169.805L267.378 169Z" fill="#FBE9E5"/>
<path d="M292.378 169H279.676L182.104 0H194.805L292.378 169Z" fill="#FBE9E5"/>
<path d="M317.378 169H304.676L207.104 0H219.805L317.378 169Z" fill="#FBE9E5"/>
<path d="M326 140.633V162.633L232.104 0H244.805L326 140.633Z" fill="#FBE9E5"/>
<path d="M326 97.332V119.332L257.104 0H269.805L326 97.332Z" fill="#FBE9E5"/>
<path d="M326 54.0307V76.0307L282.104 0H294.805L326 54.0307Z" fill="#FBE9E5"/>
<path d="M326 10.7295V32.7295L307.104 0H319.805L326 10.7295Z" fill="#FBE9E5"/>
</svg>
