<svg width="326" height="169" viewBox="0 0 326 169" fill="none" xmlns="http://www.w3.org/2000/svg">
<path d="M0 113.515V130.485L38.5147 169H55.4853L0 113.515Z" fill="#FBE9E5"/>
<path d="M87.4853 169H70.5147L0 98.4853V81.5147L87.4853 169Z" fill="#FBE9E5"/>
<path d="M119.485 169H102.515L0 66.4853V49.5147L119.485 169Z" fill="#FBE9E5"/>
<path d="M151.485 169H134.515L0 34.4853V17.5147L151.485 169Z" fill="#FBE9E5"/>
<path d="M183.485 169H166.515L0 2.48528V0H14.4853L183.485 169Z" fill="#FBE9E5"/>
<path d="M215.485 169H198.515L29.5147 0H46.4853L215.485 169Z" fill="#FBE9E5"/>
<path d="M247.485 169H230.515L61.5147 0H78.4853L247.485 169Z" fill="#FBE9E5"/>
<path d="M279.485 169H262.515L93.5147 0H110.485L279.485 169Z" fill="#FBE9E5"/>
<path d="M311.485 169H294.515L125.515 0H142.485L311.485 169Z" fill="#FBE9E5"/>
<path d="M326 151.515V168.485L157.515 0H174.485L326 151.515Z" fill="#FBE9E5"/>
<path d="M326 119.515V136.485L189.515 0H206.485L326 119.515Z" fill="#FBE9E5"/>
<path d="M326 87.5147V104.485L221.515 0H238.485L326 87.5147Z" fill="#FBE9E5"/>
<path d="M326 55.5147V72.4853L253.515 0H270.485L326 55.5147Z" fill="#FBE9E5"/>
<path d="M326 23.5147V40.4853L285.515 0H302.485L326 23.5147Z" fill="#FBE9E5"/>
<path d="M317.515 0H326V8.48528L317.515 0Z" fill="#FBE9E5"/>
<path d="M23.4853 169L0 145.515V162.485L6.51472 169H23.4853Z" fill="#FBE9E5"/>
</svg>
